<svg width="32" height="32" viewBox="0 0 32 32" fill="none" xmlns="http://www.w3.org/2000/svg">
<g clip-path="url(#clip0_2518_39480)">
<g clip-path="url(#clip1_2518_39480)">
<path d="M6.45312 16.439V10.4276C6.47098 9.24596 6.72182 8.07945 7.19127 6.99492C7.66072 5.91039 8.33956 4.92915 9.18889 4.10742C10.0382 3.28569 11.0413 2.63963 12.1408 2.20626C13.2402 1.77288 14.4144 1.5607 15.596 1.58189V1.58189C16.7776 1.5607 17.9517 1.77288 19.0512 2.20626C20.1506 2.63963 21.1537 3.28569 22.0031 4.10742C22.8524 4.92915 23.5312 5.91039 24.0007 6.99492C24.4701 8.07945 24.721 9.24596 24.7388 10.4276V16.439" stroke="#1D1D1F" stroke-width="2" stroke-linecap="round" stroke-linejoin="round"/>
<path d="M3.0279 13.0104H5.31362C5.61672 13.0104 5.90741 13.1308 6.12174 13.3451C6.33607 13.5594 6.45647 13.8501 6.45647 14.1532V21.0104C6.45647 21.3135 6.33607 21.6042 6.12174 21.8185C5.90741 22.0328 5.61672 22.1532 5.31362 22.1532H3.0279C2.42169 22.1532 1.84031 21.9124 1.41166 21.4838C0.983003 21.0551 0.742188 20.4737 0.742188 19.8675V15.2961C0.742188 14.6899 0.983003 14.1085 1.41166 13.6798C1.84031 13.2512 2.42169 13.0104 3.0279 13.0104V13.0104Z" stroke="#1D1D1F" stroke-width="2" stroke-linecap="round" stroke-linejoin="round"/>
<path d="M28.1674 22.1533H25.8817C25.5786 22.1533 25.2879 22.0329 25.0736 21.8186C24.8592 21.6043 24.7388 21.3136 24.7388 21.0105V14.1533C24.7388 13.8502 24.8592 13.5595 25.0736 13.3452C25.2879 13.1309 25.5786 13.0105 25.8817 13.0105H28.1674C28.7736 13.0105 29.355 13.2513 29.7837 13.6799C30.2123 14.1086 30.4531 14.69 30.4531 15.2962V19.8676C30.4531 20.4738 30.2123 21.0552 29.7837 21.4838C29.355 21.9125 28.7736 22.1533 28.1674 22.1533V22.1533Z" stroke="#1D1D1F" stroke-width="2" stroke-linecap="round" stroke-linejoin="round"/>
<path d="M20.1719 28.439C21.3843 28.439 22.5471 27.9574 23.4044 27.1001C24.2617 26.2428 24.7433 25.08 24.7433 23.8676V18.7247" stroke="#1D1D1F" stroke-width="2" stroke-linecap="round" stroke-linejoin="round"/>
<path d="M20.1741 28.4391C20.1741 29.1968 19.8731 29.9235 19.3373 30.4594C18.8015 30.9952 18.0747 31.2962 17.317 31.2962H13.8884C13.1306 31.2962 12.4039 30.9952 11.8681 30.4594C11.3323 29.9235 11.0312 29.1968 11.0312 28.4391C11.0312 27.6813 11.3323 26.9546 11.8681 26.4187C12.4039 25.8829 13.1306 25.5819 13.8884 25.5819H17.317C18.0747 25.5819 18.8015 25.8829 19.3373 26.4187C19.8731 26.9546 20.1741 27.6813 20.1741 28.4391Z" stroke="#1D1D1F" stroke-width="2" stroke-linecap="round" stroke-linejoin="round"/>
</g>
</g>
<defs>
<clipPath id="clip0_2518_39480">
<rect width="32" height="32" fill="white"/>
</clipPath>
<clipPath id="clip1_2518_39480">
<rect width="32" height="32" fill="white" transform="translate(-0.398438 0.439087)"/>
</clipPath>
</defs>
</svg>
